<svg xmlns="http://www.w3.org/2000/svg" width="48" height="51" viewBox="0 0 43 48"><defs><mask id="xi4zb" width="2" height="2" x="-1" y="-1"><path fill="#fff" d="M5 5h33v38H5z"/><path d="M21.5 42.998l-16.493-9.5v-19l16.493-9.5 16.492 9.5v19z"/></mask><filter id="xi4za" width="67" height="72" x="-12" y="-12" filterUnits="userSpaceOnUse"><feOffset in="SourceGraphic" result="FeOffset1117Out"/><feGaussianBlur in="FeOffset1117Out" result="FeGaussianBlur1118Out" stdDeviation="2.8 2.8"/></filter></defs><g><g><g filter="url(#xi4za)"><path fill="none" d="M21.5 42.998l-16.493-9.5v-19l16.493-9.5 16.492 9.5v19z" mask="url(&quot;#xi4zb&quot;)"/><path fill="#fff" fill-opacity=".35" d="M21.5 42.998l-16.493-9.5v-19l16.493-9.5 16.492 9.5v19z"/></g><g filter="url(#xi4za)"><path fill="none" d="M21.5 42.998l-16.493-9.5v-19l16.493-9.5 16.492 9.5v19z" mask="url(&quot;#xi4zb&quot;)"/><path fill="#fff" fill-opacity=".35" d="M21.5 42.998l-16.493-9.5v-19l16.493-9.5 16.492 9.5v19z"/></g><path fill="#039750" d="M21.5 42.998l-16.493-9.5v-19l16.493-9.5 16.492 9.5v19z"/><path fill="none" stroke="#fff" stroke-linecap="round" stroke-linejoin="round" stroke-miterlimit="50" stroke-width="2" d="M21.5 42.998v0l-16.493-9.5v0-19 0l16.493-9.5v0l16.492 9.5v19z"/></g></g></svg>