<svg xmlns="http://www.w3.org/2000/svg" width="18" height="21" viewBox="0 0 18 21"><g><g><path fill="#00b05c" d="M15.226 15.36H14.04l.006-.669c0-.297.25-.54.558-.54h.076c.307 0 .559.243.559.54zm-4.447-1.434c.302 0 .548.197.548.437v3.255c0 .24-.246.436-.548.436-.3 0-.546-.195-.546-.436v-3.255c0-.24.246-.437.546-.437zm7.22 4.372C18 19.784 16.676 21 15.056 21H2.945C1.325 21 0 19.784 0 18.298v-6.193c0-1.486 1.324-2.701 2.945-2.701h12.11c1.62 0 2.945 1.215 2.945 2.701zm-14.247.673v-6.524h1.501v-.966l-4.001-.006v.95l1.249.004v6.542zm3.249-5.552v3.484c0 .503.031.755-.002.844-.101.27-.558.557-.738.03-.03-.093-.003-.372-.003-.85l-.005-3.508H5.008l.004 3.452c.001.53-.013.924.005 1.104.03.317.018.686.32.896.564.395 1.644-.059 1.913-.623l-.002.72 1.006.001v-5.55zm5.253 1.09c-.001-1.105-.852-1.767-2.006-.874l.006-2.156-1.25.003-.007 7.44 1.028-.014.094-.464c1.314 1.173 2.14.37 2.137-1.035zm2.981 2.52a3.966 3.966 0 0 0-.002.124v.509a.505.505 0 0 1-.513.493h-.184a.505.505 0 0 1-.514-.493v-1.34h2.15v-.786c0-.575-.016-1.149-.064-1.478-.154-1.04-1.654-1.205-2.412-.672-.238.166-.42.388-.525.688-.107.298-.16.706-.16 1.226v1.728c0 2.875 3.59 2.468 3.163-.005zM11.36 7.638a1.636 1.636 0 0 1-.12-.481 13.224 13.224 0 0 1-.024-.993V2.273h1.146v4.489c0 .244.206.442.457.442a.451.451 0 0 0 .458-.442v-4.49h1.098v5.77H12.98l.023-.478a1.13 1.13 0 0 1-.35.436.812.812 0 0 1-.48.145.884.884 0 0 1-.512-.138.83.83 0 0 1-.301-.369zM7.132 4.38c0-.554.048-.986.142-1.299.094-.31.266-.56.513-.748.246-.189.561-.284.946-.284.322 0 .598.062.83.183.232.12.41.278.535.472.127.195.212.396.259.601.046.208.069.522.069.944v1.46c0 .534-.022.929-.064 1.178-.043.25-.134.483-.276.7-.14.217-.318.378-.536.48-.22.105-.473.155-.757.155-.318 0-.587-.042-.807-.132a1.094 1.094 0 0 1-.514-.4 1.757 1.757 0 0 1-.263-.646c-.053-.253-.077-.632-.077-1.137zm1.092 2.29c0 .327.25.594.556.594.304 0 .553-.267.553-.594V3.6c0-.326-.249-.593-.553-.593-.305 0-.556.267-.556.593zM4.362 3.8L2.707 0h1.425l.838 2.822.827-2.814h1.44L5.68 3.798V8.22H4.363z"/></g></g></svg>