<svg xmlns="http://www.w3.org/2000/svg" width="28" height="25" viewBox="0 0 28 25"><defs><linearGradient id="wj3oa" x1="2" x2="3" y1="25" y2="20" gradientUnits="userSpaceOnUse"><stop offset="0" stop-color="#00a154"/><stop offset="1" stop-color="#00c265"/></linearGradient><clipPath id="wj3ob"><path fill="#fff" d="M-1 26v-7h7v7zm1-3.5a2.5 2.5 0 1 0 5 0 2.5 2.5 0 0 0-5 0z"/></clipPath><linearGradient id="wj3oc" x1="2" x2="3" y1="15" y2="10" gradientUnits="userSpaceOnUse"><stop offset="0" stop-color="#00a154"/><stop offset="1" stop-color="#00c265"/></linearGradient><clipPath id="wj3od"><path fill="#fff" d="M-1 16V9h7v7zm1-3.5a2.5 2.5 0 1 0 5 0 2.5 2.5 0 0 0-5 0z"/></clipPath><linearGradient id="wj3oe" x1="2" x2="3" y1="5" y2="0" gradientUnits="userSpaceOnUse"><stop offset="0" stop-color="#00a154"/><stop offset="1" stop-color="#00c265"/></linearGradient><clipPath id="wj3of"><path fill="#fff" d="M-1 6v-7h7v7zm1-3.5a2.5 2.5 0 1 0 5 0 2.5 2.5 0 0 0-5 0z"/></clipPath></defs><g><g><g><path fill="#eaedf2" d="M9 11h19v3H9zm0 10h19v3H9zM9 1h19v3H9z"/></g><g><path fill="url(#wj3oa)" d="M2.5 20a2.5 2.5 0 1 1 0 5 2.5 2.5 0 0 1 0-5z"/><path fill="none" stroke="#000" stroke-miterlimit="50" stroke-width="2" d="M2.5 20a2.5 2.5 0 1 1 0 5 2.5 2.5 0 0 1 0-5z" clip-path="url(&quot;#wj3ob&quot;)"/></g><g><path fill="url(#wj3oc)" d="M2.5 10a2.5 2.5 0 1 1 0 5 2.5 2.5 0 0 1 0-5z"/><path fill="none" stroke="#000" stroke-miterlimit="50" stroke-width="2" d="M2.5 10a2.5 2.5 0 1 1 0 5 2.5 2.5 0 0 1 0-5z" clip-path="url(&quot;#wj3od&quot;)"/></g><g><path fill="url(#wj3oe)" d="M2.5 0a2.5 2.5 0 1 1 0 5 2.5 2.5 0 0 1 0-5z"/><path fill="none" stroke="#000" stroke-miterlimit="50" stroke-width="2" d="M2.5 0a2.5 2.5 0 1 1 0 5 2.5 2.5 0 0 1 0-5z" clip-path="url(&quot;#wj3of&quot;)"/></g></g></g></svg>