<svg xmlns="http://www.w3.org/2000/svg" width="87" height="97" viewBox="0 0 87 97"><defs><clipPath id="qyw2a"><path fill="#fff" d="M0 97V0h87v97zm84.981-25.254v-46.5L43.5 1.995 2.018 25.246v46.5L43.5 94.996z"/></clipPath><clipPath id="qyw2b"><path fill="#fff" d="M43.5 94.996L2.018 71.746v-46.5L43.5 1.995l41.481 23.25v46.5z"/></clipPath></defs><g><g><path fill="#fff" d="M43.5 94.996L2.018 71.746v-46.5L43.5 1.995l41.481 23.25v46.5z"/><path fill="none" stroke="#fff" stroke-linecap="round" stroke-linejoin="round" stroke-miterlimit="50" stroke-width="4" d="M43.5 94.996v0L2.018 71.746v0-46.5 0L43.5 1.995v0l41.481 23.25v46.5z" clip-path="url(&quot;#qyw2a&quot;)"/><path fill="none" stroke="#039750" stroke-miterlimit="50" stroke-width="4" d="M43.5 94.996v0L2.018 71.746v0-46.5 0L43.5 1.995v0l41.481 23.25v46.5z" clip-path="url(&quot;#qyw2b&quot;)"/></g><g><path fill="#039750" d="M60.832 44.367L43.377 60.892c-1.54 1.463-4.038 1.463-5.583 0l-8.645-8.194a3.61 3.61 0 0 1-1.158-2.636c0-.994.414-1.946 1.158-2.644v-.006a4.056 4.056 0 0 1 2.792-1.09c1.041 0 2.047.392 2.784 1.096l5.153 4.881c.189.172.444.275.707.275.27 0 .517-.096.706-.275l13.958-13.218a4.072 4.072 0 0 1 2.792-1.09c1.043 0 2.049.393 2.791 1.09 1.538 1.462 1.538 3.823 0 5.286z"/></g></g></svg>