<svg xmlns="http://www.w3.org/2000/svg" width="18" height="18" viewBox="0 0 18 18"><defs><clipPath id="qy33a"><path fill="#fff" d="M13.035-.001a4.973 4.973 0 0 1 4.968 4.967v8.065a4.973 4.973 0 0 1-4.968 4.967H4.968A4.973 4.973 0 0 1 0 13.031V4.966A4.973 4.973 0 0 1 4.968-.001zm3.37 4.967a3.374 3.374 0 0 0-3.37-3.37H4.968a3.374 3.374 0 0 0-3.371 3.37v8.065a3.374 3.374 0 0 0 3.37 3.37h8.068a3.374 3.374 0 0 0 3.37-3.37zM9.002 4.36c2.558 0 4.64 2.08 4.64 4.637A4.644 4.644 0 0 1 9 13.637a4.644 4.644 0 0 1-4.639-4.639 4.643 4.643 0 0 1 4.64-4.637zm0 7.678A3.045 3.045 0 0 0 12.043 9a3.045 3.045 0 0 0-3.042-3.042A3.045 3.045 0 0 0 5.96 8.998a3.045 3.045 0 0 0 3.042 3.041zm4.834-9.032c.309 0 .61.124.828.342.219.217.343.52.343.829 0 .307-.124.61-.343.828a1.18 1.18 0 0 1-.828.342c-.308 0-.61-.125-.827-.342a1.18 1.18 0 0 1-.344-.828 1.174 1.174 0 0 1 1.171-1.171z"/></clipPath></defs><g><g><path fill="none" stroke="#fff" stroke-miterlimit="50" stroke-width="2" d="M13.035-.001a4.973 4.973 0 0 1 4.968 4.967v8.065a4.973 4.973 0 0 1-4.968 4.967H4.968A4.973 4.973 0 0 1 0 13.031V4.966A4.973 4.973 0 0 1 4.968-.001zm3.37 4.967a3.374 3.374 0 0 0-3.37-3.37H4.968a3.374 3.374 0 0 0-3.371 3.37v8.065a3.374 3.374 0 0 0 3.37 3.37h8.068a3.374 3.374 0 0 0 3.37-3.37zM9.002 4.36c2.558 0 4.64 2.08 4.64 4.637A4.644 4.644 0 0 1 9 13.637a4.644 4.644 0 0 1-4.639-4.639 4.643 4.643 0 0 1 4.64-4.637zm0 7.678A3.045 3.045 0 0 0 12.043 9a3.045 3.045 0 0 0-3.042-3.042A3.045 3.045 0 0 0 5.96 8.998a3.045 3.045 0 0 0 3.042 3.041zm4.834-9.032c.309 0 .61.124.828.342.219.217.343.52.343.829 0 .307-.124.61-.343.828a1.18 1.18 0 0 1-.828.342c-.308 0-.61-.125-.827-.342a1.18 1.18 0 0 1-.344-.828 1.174 1.174 0 0 1 1.171-1.171z" clip-path="url(&quot;#qy33a&quot;)"/></g></g></svg>